<mxfile host="app.diagrams.net" modified="2023-01-21T15:37:38.166Z" agent="5.0 (Windows)" version="20.7.4" etag="C2U3cU65yVZPzqXNt8eq" type="github">
  <diagram id="Qr0O13sCyCkaR1NoNOQS" name="Page-1">
    <mxGraphModel dx="1358" dy="718" grid="1" gridSize="10" guides="1" tooltips="1" connect="1" arrows="1" fold="1" page="1" pageScale="1" pageWidth="3300" pageHeight="4681" math="0" shadow="0">
      <root>
        <mxCell id="0" />
        <mxCell id="1" parent="0" />
        <mxCell id="ojQcFGe6-04BjamfQOLj-1" value="" style="rounded=0;whiteSpace=wrap;html=1;fillColor=none;" vertex="1" parent="1">
          <mxGeometry x="45" y="40" width="660" height="420" as="geometry" />
        </mxCell>
        <mxCell id="ojQcFGe6-04BjamfQOLj-2" value="Cable Canal" style="rounded=0;whiteSpace=wrap;html=1;fillColor=none;rotation=-90;fontSize=14;" vertex="1" parent="1">
          <mxGeometry x="-40" y="125" width="210" height="40" as="geometry" />
        </mxCell>
        <mxCell id="ojQcFGe6-04BjamfQOLj-3" value="PSU" style="rounded=0;whiteSpace=wrap;html=1;fillColor=none;fontSize=14;" vertex="1" parent="1">
          <mxGeometry x="85" y="100" width="80" height="100" as="geometry" />
        </mxCell>
        <mxCell id="ojQcFGe6-04BjamfQOLj-4" value="Terminal Block" style="rounded=0;whiteSpace=wrap;html=1;fillColor=none;fontSize=14;" vertex="1" parent="1">
          <mxGeometry x="165" y="110" width="80" height="80" as="geometry" />
        </mxCell>
        <mxCell id="ojQcFGe6-04BjamfQOLj-5" value="Breaker" style="rounded=0;whiteSpace=wrap;html=1;fillColor=none;rotation=-90;fontSize=14;" vertex="1" parent="1">
          <mxGeometry x="225" y="130" width="80" height="40" as="geometry" />
        </mxCell>
        <mxCell id="ojQcFGe6-04BjamfQOLj-13" value="Universal Robots Control Box" style="rounded=0;whiteSpace=wrap;html=1;fillColor=none;fontSize=14;" vertex="1" parent="1">
          <mxGeometry x="85" y="320" width="560" height="120" as="geometry" />
        </mxCell>
        <mxCell id="ojQcFGe6-04BjamfQOLj-14" value="&lt;div style=&quot;font-size: 14px;&quot;&gt;Relay 1&lt;/div&gt;" style="rounded=0;whiteSpace=wrap;html=1;fillColor=none;rotation=-90;fontSize=14;" vertex="1" parent="1">
          <mxGeometry x="265" y="130" width="80" height="40" as="geometry" />
        </mxCell>
        <mxCell id="ojQcFGe6-04BjamfQOLj-17" value="&lt;div style=&quot;font-size: 14px;&quot;&gt;Relay 2&lt;br&gt;&lt;/div&gt;" style="rounded=0;whiteSpace=wrap;html=1;fillColor=none;rotation=-90;fontSize=14;" vertex="1" parent="1">
          <mxGeometry x="305" y="130" width="80" height="40" as="geometry" />
        </mxCell>
        <mxCell id="ojQcFGe6-04BjamfQOLj-18" value="&lt;div style=&quot;font-size: 14px;&quot;&gt;Relay 3&lt;/div&gt;" style="rounded=0;whiteSpace=wrap;html=1;fillColor=none;rotation=-90;fontSize=14;" vertex="1" parent="1">
          <mxGeometry x="345" y="130" width="80" height="40" as="geometry" />
        </mxCell>
        <mxCell id="ojQcFGe6-04BjamfQOLj-19" value="&lt;div style=&quot;font-size: 14px;&quot;&gt;Relay 4&lt;/div&gt;" style="rounded=0;whiteSpace=wrap;html=1;fillColor=none;rotation=-90;fontSize=14;" vertex="1" parent="1">
          <mxGeometry x="385" y="130" width="80" height="40" as="geometry" />
        </mxCell>
        <mxCell id="ojQcFGe6-04BjamfQOLj-20" value="Network Switch" style="rounded=0;whiteSpace=wrap;html=1;fillColor=none;fontSize=14;" vertex="1" parent="1">
          <mxGeometry x="605" y="70" width="100" height="160" as="geometry" />
        </mxCell>
        <mxCell id="ojQcFGe6-04BjamfQOLj-21" value="IPC" style="rounded=0;whiteSpace=wrap;html=1;fillColor=none;fontSize=14;" vertex="1" parent="1">
          <mxGeometry x="445" y="100" width="160" height="100" as="geometry" />
        </mxCell>
        <mxCell id="ojQcFGe6-04BjamfQOLj-22" value="Cable Canal" style="rounded=0;whiteSpace=wrap;html=1;fillColor=none;rotation=0;fontSize=14;" vertex="1" parent="1">
          <mxGeometry x="45" y="250" width="550" height="40" as="geometry" />
        </mxCell>
      </root>
    </mxGraphModel>
  </diagram>
</mxfile>
